<svg width="40" height="46" viewBox="0 0 40 46" fill="none" xmlns="http://www.w3.org/2000/svg">
<path d="M20.0009 38.8155L8.5843 27.3989C5.53483 24.3494 3.85547 20.2949 3.85547 15.9823C3.85547 11.6696 5.53501 7.61528 8.5843 4.56563C11.634 1.51633 15.6884 -0.163208 20.0009 -0.163208C24.3134 -0.163208 28.3679 1.51633 31.4176 4.56563C34.467 7.61511 36.1464 11.6696 36.1464 15.9823C36.1464 20.2949 34.4669 24.3492 31.4176 27.3989L20.0009 38.8155ZM20.0009 1.6405C16.3265 1.6405 12.6523 3.03918 9.85506 5.83638C4.26048 11.4308 4.26048 20.5337 9.85506 26.1283L20.0009 36.2742L30.1468 26.1283C35.7414 20.5339 35.7414 11.4309 30.1468 5.83638C27.3496 3.03918 23.6754 1.6405 20.0009 1.6405Z" fill="black"/>
<path d="M20 24.0676C15.5414 24.0676 11.9141 20.4403 11.9141 15.9817C11.9141 11.5231 15.5414 7.89575 20 7.89575C24.4586 7.89575 28.0859 11.5231 28.0859 15.9817C28.0859 20.4403 24.4586 24.0676 20 24.0676ZM20 9.69263C16.5322 9.69263 13.7109 12.5139 13.7109 15.9817C13.7109 19.4495 16.5322 22.2708 20 22.2708C23.4678 22.2708 26.2891 19.4495 26.2891 15.9817C26.2891 12.5139 23.4678 9.69263 20 9.69263Z" fill="black"/>
<path d="M20 42.6271L11.324 33.951H5.625L2.03125 44.7323H37.9688L34.375 33.951H28.676L20 42.6271Z" fill="#EA3838"/>
<path d="M39.2156 45.6307H0.785156L4.9778 33.0526H11.6965L20.0004 41.3565L28.3043 33.0526H35.023L39.2156 45.6307ZM20.0642 43.8339H36.7226L33.7278 34.8495H29.0486L20.0642 43.8339ZM3.27814 43.8339H19.9366L10.9522 34.8495H6.27299L3.27814 43.8339Z" fill="black"/>
<path d="M20.8984 8.79419H19.1016V12.3879H20.8984V8.79419Z" fill="black"/>
<path d="M20.8984 19.5756H19.1016V23.1693H20.8984V19.5756Z" fill="black"/>
<path d="M27.1875 15.0834H23.5938V16.8802H27.1875V15.0834Z" fill="black"/>
<path d="M16.4062 15.0834H12.8125V16.8802H16.4062V15.0834Z" fill="black"/>
</svg>
